<svg width="20" height="20" viewBox="0 0 20 20" fill="none" xmlns="http://www.w3.org/2000/svg">
<g clip-path="url(#clip0_536_207)">
<path fill-rule="evenodd" clip-rule="evenodd" d="M6.49999 6.475C6.47293 6.46955 6.44496 6.47059 6.41837 6.47803C6.39178 6.48546 6.36733 6.49908 6.34702 6.51778C6.3267 6.53647 6.31109 6.5597 6.30147 6.58558C6.29185 6.61145 6.28849 6.63924 6.29166 6.66666C6.21666 7.13333 6.11666 7.6 5.99999 8.05833C5.71666 9.14166 5.34999 10.2167 5.06666 11.2917C4.98333 11.6167 4.74166 12.05 4.64999 12.45C4.59095 12.6711 4.59095 12.9039 4.64999 13.125C4.80672 13.4879 5.0873 13.7832 5.44166 13.9583C6.1549 14.2688 6.90573 14.4845 7.67499 14.6C8.23333 14.725 8.78333 14.85 9.34166 14.95C9.71666 15.025 10.1 15.0833 10.475 15.1333C10.7696 15.1812 11.0688 15.1952 11.3667 15.175C11.6161 15.1507 11.8533 15.0552 12.05 14.9C12.3261 14.6483 12.5328 14.3297 12.65 13.975C12.845 13.2652 12.9981 12.5445 13.1083 11.8167C13.275 11.1917 13.625 9.93333 13.7917 9.31666C13.8624 9.06921 13.907 8.81506 13.925 8.55833C13.936 8.34033 13.8776 8.12446 13.7583 7.94166C13.5998 7.73286 13.3942 7.56441 13.1583 7.45C12.857 7.29991 12.5416 7.17989 12.2167 7.09166C11.7079 6.92257 11.1905 6.7807 10.6667 6.66666C9.44999 6.425 8.16666 6.28333 6.98333 6.05833C6.92844 6.05042 6.87257 6.06306 6.82643 6.09382C6.78029 6.12458 6.74714 6.17129 6.73333 6.225C6.7234 6.28013 6.73521 6.33697 6.76629 6.38358C6.79736 6.43019 6.84528 6.46295 6.89999 6.475C7.40833 6.58333 7.92499 6.675 8.44166 6.75833C8.31666 7.25833 8.18333 7.75 8.04999 8.24166L6.38333 8.09166C6.48333 7.625 6.57499 7.15833 6.63333 6.68333C6.64112 6.63823 6.63176 6.59184 6.60709 6.55329C6.58241 6.51474 6.54421 6.48681 6.49999 6.475ZM5.83333 10.3917C6.37657 10.4556 6.91616 10.5474 7.44999 10.6667C7.44999 10.7833 7.39166 10.8917 7.36666 11.0083C7.30833 11.2583 7.25833 11.5083 7.19999 11.7583C6.60833 11.7083 6.03333 11.7 5.46666 11.7083C5.50833 11.5917 5.54999 11.475 5.57499 11.375C5.64999 11.05 5.74166 10.725 5.83333 10.3917ZM5.23333 12.8917C5.17545 12.73 5.17545 12.5533 5.23333 12.3917C5.23333 12.3 5.28333 12.2167 5.31666 12.125L6.35833 12.275L7.04166 12.4083C6.95833 12.775 6.86666 13.1417 6.76666 13.5C6.75529 13.5445 6.75893 13.5915 6.77702 13.6337C6.7951 13.6758 6.82661 13.7109 6.86666 13.7333C6.58376 13.6788 6.30524 13.6036 6.03333 13.5083C5.86154 13.4685 5.70039 13.392 5.56088 13.2841C5.42138 13.1763 5.3068 13.0395 5.22499 12.8833L5.23333 12.8917ZM11.6667 14.325C11.5466 14.4068 11.4034 14.4477 11.2583 14.4417C11.0517 14.4429 10.8454 14.4262 10.6417 14.3917C10.1833 14.3333 9.72499 14.2583 9.26666 14.175C8.80833 14.0917 8.33333 14 7.84166 13.9C7.60833 13.85 7.30833 13.8083 7.00833 13.75C7.04922 13.7513 7.08953 13.74 7.1238 13.7176C7.15808 13.6953 7.18467 13.6629 7.19999 13.625C7.34166 13.25 7.48333 12.8833 7.61666 12.5083L8.34166 12.6333C9.33333 12.8083 10.3417 12.975 11.275 13.2C11.3013 13.2077 11.3288 13.2101 11.356 13.2071C11.3832 13.2041 11.4095 13.1958 11.4335 13.1827C11.4575 13.1695 11.4787 13.1518 11.4958 13.1304C11.5129 13.1091 11.5257 13.0846 11.5333 13.0583C11.5436 13.0322 11.548 13.0041 11.5463 12.976C11.5445 12.9479 11.5366 12.9206 11.523 12.896C11.5095 12.8713 11.4907 12.8499 11.468 12.8333C11.4453 12.8168 11.4193 12.8054 11.3917 12.8C10.7167 12.55 10.0083 12.3167 9.27499 12.125C8.96666 12.0417 8.65833 11.975 8.34166 11.9167C8.17499 11.9167 8.00833 11.8667 7.83333 11.8417C7.89999 11.6417 7.96666 11.45 8.02499 11.2583C8.08333 11.0667 8.10833 10.9583 8.14166 10.8167L8.64166 10.925L9.77499 11.175C10.6833 11.375 11.5833 11.5833 12.45 11.8167C12.3583 12.2833 12.2833 12.8833 12.125 13.4333C12.0564 13.7668 11.8979 14.0751 11.6667 14.325ZM12.5 11.3917C11.8083 11.125 11.0917 10.8583 10.3583 10.6333C10.0167 10.5333 9.68333 10.4417 9.33333 10.3583C8.98333 10.275 8.64166 10.2167 8.29166 10.1667C8.36666 9.83333 8.44166 9.50833 8.49999 9.175C8.50403 9.10005 8.50403 9.02494 8.49999 8.95L9.66666 9.20833L10.8667 9.44166L12.9667 9.85L12.5 11.3917ZM10.5667 7.16666C11.075 7.28333 11.5833 7.41666 12.0833 7.575C12.37 7.66595 12.6487 7.78022 12.9167 7.91666C13.0624 7.99485 13.1902 8.10273 13.2917 8.23333C13.34 8.31641 13.3604 8.41279 13.35 8.50833C13.3273 8.71799 13.2826 8.92468 13.2167 9.125L13.1333 9.375C12.425 9.15833 11.7167 8.94166 10.9917 8.76666C10.4167 8.625 9.84166 8.50833 9.26666 8.40833L8.62499 8.325C8.69999 7.825 8.76666 7.325 8.83333 6.83333C9.40833 6.93333 9.99999 7.04166 10.5667 7.16666ZM7.74999 9.375C7.69166 9.60833 7.63333 9.85833 7.58333 10.1C7.02499 10.05 6.46666 10.025 5.91666 10.025C6.05833 9.50833 6.18333 8.99166 6.30833 8.475L7.89999 8.80833L7.74999 9.375Z" fill="white"/>
<path fill-rule="evenodd" clip-rule="evenodd" d="M13.5834 5.44167C13.4115 5.42202 13.2415 5.38858 13.075 5.34167C13.1417 5.175 13.2417 4.98333 13.3334 4.775C13.8084 3.71667 14.1084 2.575 13.3334 1.725C13.3159 1.70366 13.2943 1.68598 13.27 1.67296C13.2456 1.65995 13.219 1.65186 13.1915 1.64915C13.136 1.64368 13.0806 1.66047 13.0375 1.69583C12.9944 1.7312 12.9672 1.78223 12.9617 1.83771C12.9562 1.89319 12.973 1.94857 13.0084 1.99167C13.8417 3.1 12.5 4.33333 12.2334 5.325C11.9667 6.31667 14.525 6.325 15.4417 6.03333L16.8167 5.65C17.1667 5.49167 16.9584 5.08333 16.75 5.125C15.05 5.54167 15 5.65 13.5834 5.44167Z" fill="white"/>
<path fill-rule="evenodd" clip-rule="evenodd" d="M14.25 1.15C13.1917 0.933333 13.675 1.05833 6.58334 0.174999C6.52512 0.176067 6.46924 0.19812 6.42599 0.237102C6.38273 0.276083 6.355 0.329373 6.34791 0.387168C6.34081 0.444964 6.35482 0.503378 6.38735 0.551668C6.41989 0.599958 6.46877 0.634876 6.52501 0.649999C13.125 1.53333 13.3333 1.54167 14.1667 1.725C15 1.90833 16.775 4.16667 17.2 5C17.2964 5.14829 17.3431 5.32341 17.3333 5.5C17.1083 6.68333 16.1833 10.1167 15.9083 10.9C15.6333 11.6833 15.3833 12.25 15.1583 12.9417C15.0667 13.2083 14.325 16.4583 13.375 16.775C12.0667 17.2167 10.7333 16.65 9.425 16.6C8.59167 16.6 6.92501 16.4833 5.85834 16.3167C1.69167 15.6417 1.87501 15.7333 0.808339 15.05C2.00834 13.775 3.11667 10.5833 3.71667 8.75833C4.24055 6.69698 4.64676 4.60749 4.93334 2.5C5.00001 2.13333 5.59167 0.241666 5.00001 0.433333C4.75001 0.508333 4.78334 0.883333 4.75834 1.04167C4.59167 2.08333 3.86667 6.125 3.71667 6.79167C3.07865 9.28761 2.1089 11.6868 0.833339 13.925C0.678487 14.1425 0.511558 14.3512 0.333339 14.55C0.200327 14.6825 0.0879632 14.8342 5.28898e-06 15C-0.0259558 15.1181 -0.015113 15.2413 0.0310742 15.353C0.0772614 15.4648 0.156575 15.5597 0.258339 15.625C0.709741 15.9674 1.21344 16.2347 1.75001 16.4167C4.2538 16.986 6.80222 17.3373 9.36667 17.4667C10.6917 17.5167 12.0917 18.1167 13.6083 17.6C14.9917 17.125 15.725 13.725 15.875 13.25C16.0917 12.5583 16.3667 11.8917 16.5917 11.2083C16.8167 10.525 17.7417 7.04167 17.975 5.68333C18.2 4.475 15.3167 1.375 14.25 1.15Z" fill="white"/>
<path fill-rule="evenodd" clip-rule="evenodd" d="M19.2917 6.31666C19.0583 7.5 17.8167 12.2083 17.5417 12.9833C17.2667 13.7583 17.0167 14.3417 16.7917 15.0333C16.7 15.3 15.9583 18.5417 15.0083 18.8583C13.7 19.3 12.3667 18.7333 11.0583 18.6833C10.225 18.6833 8.55834 18.5667 7.49168 18.4C3.51668 17.7583 3.50001 17.925 2.58334 17.3417C2.04168 17.0417 1.83334 17.575 2.15834 17.8583C2.52608 18.1422 2.9535 18.3388 3.40834 18.4333C5.91159 19.0071 8.46016 19.3613 11.025 19.4917C12.35 19.5417 13.7583 20.1333 15.2667 19.625C16.775 19.1167 17.3833 15.75 17.5 15.2667C17.7167 14.5833 17.9917 13.9167 18.2167 13.2333C18.4417 12.55 19.75 7.84166 20 6.50833C20.1083 5.83333 19.4583 5.63333 19.2917 6.31666Z" fill="white"/>
</g>
<defs>
<clipPath id="clip0_536_207">
<rect width="20" height="20" fill="white"/>
</clipPath>
</defs>
</svg>
