<svg width="20" height="24" viewBox="0 0 20 24" fill="none" xmlns="http://www.w3.org/2000/svg">
<path fill-rule="evenodd" clip-rule="evenodd" d="M13.4551 6.68844C13.4785 6.45244 13.4436 6.21431 13.3535 5.99493C13.2634 5.77555 13.1209 5.58161 12.9384 5.43011C12.76 5.28018 12.5521 5.16935 12.3282 5.10476C12.1043 5.04016 11.8693 5.02325 11.6384 5.05511C11.3995 5.08947 11.1732 5.18397 10.9808 5.32973C10.7884 5.47549 10.6362 5.66774 10.5384 5.88844C10.4344 6.09527 10.3802 6.32358 10.3802 6.55511C10.3802 6.78663 10.4344 7.01495 10.5384 7.22177C10.6823 7.45034 10.8725 7.64621 11.0968 7.79677C11.3795 7.93489 11.6941 7.9946 12.0078 7.96969C12.3215 7.94477 12.6227 7.83613 12.8801 7.65511C13.041 7.54602 13.1759 7.40287 13.2753 7.23581C13.3746 7.06876 13.436 6.88188 13.4551 6.68844ZM12.4218 7.10511C12.374 7.1673 12.3139 7.21906 12.2454 7.25719C12.1768 7.29532 12.1012 7.31902 12.0231 7.32682C11.9451 7.33463 11.8662 7.32638 11.7915 7.30258C11.7167 7.27878 11.6476 7.23994 11.5884 7.18844C11.4738 7.08239 11.3854 6.95117 11.3301 6.80511C11.2801 6.68844 11.3718 6.51344 11.4718 6.35511C11.5036 6.29307 11.5511 6.24044 11.6096 6.20243C11.6681 6.16442 11.7355 6.14236 11.8051 6.13844C11.9842 6.11615 12.1651 6.16066 12.3134 6.26344C12.3881 6.30728 12.4516 6.36763 12.4993 6.43986C12.547 6.51208 12.5775 6.59427 12.5884 6.68011C12.5938 6.75887 12.5817 6.83784 12.5529 6.91134C12.5241 6.98484 12.4793 7.05102 12.4218 7.10511Z" fill="white"/>
<path fill-rule="evenodd" clip-rule="evenodd" d="M3.43011 11.6968C3.31534 11.67 3.19796 11.6561 3.08011 11.6551C2.96102 11.6422 2.84088 11.6422 2.72178 11.6551C1.59678 11.8468 1.61345 12.0718 1.61345 12.1801C1.61345 12.2884 1.61345 12.4801 2.70511 12.6968C2.82146 12.7091 2.93877 12.7091 3.05511 12.6968C3.17164 12.705 3.28859 12.705 3.40511 12.6968C4.46345 12.5384 4.55511 12.3968 4.54678 12.1801C4.53845 11.9634 4.49678 11.8968 3.43011 11.6968Z" fill="white"/>
<path fill-rule="evenodd" clip-rule="evenodd" d="M7.81346 11.8134H7.39679C7.25525 11.8051 7.11334 11.8051 6.97179 11.8134C5.65513 11.9551 5.67179 12.1468 5.66346 12.2801C5.65513 12.4134 5.66346 12.6134 6.93846 12.8551C7.07986 12.8675 7.22207 12.8675 7.36346 12.8551C7.51042 12.8676 7.65817 12.8676 7.80513 12.8551C8.98013 12.7134 9.13846 12.5884 9.13846 12.3384C9.13846 12.0884 8.99679 12.0051 7.81346 11.8134Z" fill="white"/>
<path fill-rule="evenodd" clip-rule="evenodd" d="M11.6718 11.7801C11.4355 11.7302 11.1914 11.7302 10.9551 11.7801C9.86345 12.0468 9.89678 12.2551 9.90511 12.3718C9.91344 12.4884 9.90511 12.6718 11.0134 12.8218C11.1242 12.8342 11.236 12.8342 11.3468 12.8218C11.455 12.83 11.5636 12.83 11.6718 12.8218C12.6801 12.6551 12.7718 12.6051 12.7884 12.3801C12.8051 12.1551 12.8718 12.0051 11.6718 11.7801Z" fill="white"/>
<path fill-rule="evenodd" clip-rule="evenodd" d="M3.43011 18.5384C3.31656 18.526 3.20199 18.526 3.08845 18.5384C1.91345 18.7218 1.95511 18.8884 1.93845 19.0051C1.93845 19.3468 3.03845 19.5801 3.06345 19.5801C3.18537 19.5921 3.30818 19.5921 3.43011 19.5801C3.5576 19.5924 3.68596 19.5924 3.81345 19.5801C4.90511 19.3884 4.98845 19.2218 4.96345 19.0051C4.93845 18.7884 4.88011 18.7051 3.78845 18.5551C3.66955 18.541 3.5498 18.5354 3.43011 18.5384Z" fill="white"/>
<path fill-rule="evenodd" clip-rule="evenodd" d="M8.08013 18.2634C7.93922 18.2755 7.79974 18.3006 7.66346 18.3384C6.41346 18.6718 6.41346 18.8634 6.46346 18.9884C6.51346 19.1134 6.38013 19.3968 7.88846 19.3718C8.09848 19.3637 8.3075 19.3386 8.51346 19.2968C9.68846 19.0801 9.75513 19.0468 9.78013 18.8051C9.80513 18.5634 9.82179 18.3634 8.47179 18.2634C8.34133 18.2564 8.21058 18.2564 8.08013 18.2634Z" fill="white"/>
<path fill-rule="evenodd" clip-rule="evenodd" d="M12.1301 18.1884C12.0305 18.1763 11.9298 18.1763 11.8301 18.1884C10.7551 18.5051 10.8968 18.7551 10.9051 18.7801C10.9135 18.8051 10.9051 19.0801 11.8968 19.2301C11.9964 19.2425 12.0972 19.2425 12.1968 19.2301L12.4718 19.1801C13.3051 18.9884 13.4551 18.9468 13.4635 18.6968C13.4718 18.4468 13.3968 18.3134 12.4385 18.1551C12.3347 18.1536 12.2312 18.1648 12.1301 18.1884Z" fill="white"/>
<path fill-rule="evenodd" clip-rule="evenodd" d="M14.6301 11.0468C14.4767 10.7031 14.2243 10.4129 13.9051 10.2134C13.9468 10.2134 13.2885 9.67177 11.7635 9.64677C10.9301 9.64677 5.99679 9.90511 5.93012 9.90511C4.81575 9.89746 3.70277 9.82511 2.59679 9.68844C2.55264 9.67837 2.50687 9.67763 2.46242 9.68627C2.41796 9.69492 2.37581 9.71276 2.33866 9.73866C2.3015 9.76455 2.27017 9.79792 2.24667 9.83663C2.22317 9.87534 2.20801 9.91853 2.20218 9.96344C2.19635 10.0083 2.19997 10.054 2.2128 10.0974C2.22564 10.1408 2.24741 10.1811 2.27671 10.2156C2.30602 10.2501 2.34222 10.2782 2.38299 10.2979C2.42375 10.3176 2.46819 10.3286 2.51345 10.3301C3.63967 10.4975 4.77518 10.5949 5.91345 10.6218H9.31345C10.0551 10.6218 10.9135 10.4968 11.7385 10.5301C12.2272 10.5322 12.711 10.6284 13.1635 10.8134C13.2974 10.8678 13.4194 10.948 13.5224 11.0495C13.6253 11.1511 13.7072 11.2719 13.7635 11.4051C13.9236 11.9455 13.994 12.5086 13.9718 13.0718C14.0301 13.9468 14.1718 15.9634 14.1801 17.7051C14.1977 18.406 14.1727 19.1073 14.1051 19.8051C14.1051 20.0218 13.8801 20.2468 13.9635 20.3218C13.316 20.6024 12.6257 20.7714 11.9218 20.8218C10.7361 20.9323 9.54347 20.9491 8.35512 20.8718L3.48845 20.7051C3.0739 20.7175 2.659 20.7008 2.24679 20.6551C2.02543 20.6395 1.81106 20.5709 1.62179 20.4551C1.43818 20.2506 1.32183 19.9946 1.28845 19.7218C1.17541 19.1714 1.09472 18.6149 1.04679 18.0551C0.83692 16.6426 0.73108 15.2165 0.730119 13.7884C0.730119 8.71344 1.10512 9.22177 1.66345 8.78844C1.88845 8.63011 2.13012 8.49677 2.37179 8.34677C2.61345 8.19677 2.83012 8.06344 3.04679 7.91344C3.49787 7.60823 3.9683 7.33265 4.45512 7.08844C4.49078 7.0771 4.52385 7.0588 4.5524 7.03461C4.58095 7.01042 4.60443 6.98081 4.62148 6.94749C4.63852 6.91417 4.6488 6.87781 4.65171 6.8405C4.65463 6.80319 4.65012 6.76567 4.63845 6.73011C4.62711 6.69444 4.60881 6.66138 4.58462 6.63283C4.56043 6.60427 4.53082 6.5808 4.4975 6.56375C4.46418 6.54671 4.42782 6.53643 4.39051 6.53351C4.3532 6.5306 4.31568 6.53511 4.28012 6.54677C3.74048 6.60915 3.21112 6.74079 2.70512 6.93844C2.48858 7.0279 2.28191 7.13961 2.08845 7.27177C1.89154 7.39867 1.70486 7.54077 1.53012 7.69677C1.1347 8.06771 0.784997 8.48455 0.488452 8.93844C0.441776 8.99625 0.416318 9.06831 0.416318 9.14261C0.416318 9.21691 0.441776 9.28897 0.488452 9.34677C0.465617 9.36649 0.44715 9.39076 0.434235 9.41802C0.42132 9.44529 0.414241 9.47495 0.413452 9.50511C0.192329 10.9457 0.0587509 12.3984 0.0134523 13.8551C-0.0298489 15.3187 0.031418 16.7836 0.196786 18.2384C0.238317 18.917 0.333053 19.5913 0.480119 20.2551C0.569253 20.6081 0.760575 20.927 1.03012 21.1718C1.26111 21.3484 1.52881 21.4708 1.81345 21.5301C2.36293 21.6333 2.92104 21.6836 3.48012 21.6801L8.31345 21.9468C9.5597 22.0356 10.8112 22.0217 12.0551 21.9051C12.9485 21.8351 13.8186 21.5857 14.6135 21.1718C14.8024 21.0452 14.9456 20.8611 15.0218 20.6468C15.1588 20.1951 15.2345 19.727 15.2468 19.2551C15.222 16.5084 15.016 13.7663 14.6301 11.0468Z" fill="white"/>
<path fill-rule="evenodd" clip-rule="evenodd" d="M19.4718 7.71344C19.4296 7.56279 19.3458 7.42706 19.2301 7.32178C19.03 7.16749 18.8151 7.03349 18.5885 6.92178C18.2477 6.73131 17.8972 6.55885 17.5385 6.40511C17.0218 6.18011 16.4884 5.98011 15.9634 5.78011C15.8949 5.75225 15.8181 5.75234 15.7495 5.78038C15.681 5.80841 15.6262 5.86216 15.5968 5.93011C15.5803 5.96384 15.5708 6.0006 15.5691 6.03812C15.5673 6.07564 15.5732 6.11312 15.5865 6.14826C15.5998 6.18339 15.6201 6.21544 15.6462 6.24241C15.6724 6.26939 15.7038 6.29073 15.7385 6.30511C16.1468 6.51344 16.5718 6.72178 16.9551 6.95511C17.3455 7.17514 17.7213 7.42009 18.0801 7.68844C18.3634 7.89678 18.7468 7.68844 18.1801 8.34678C17.9385 8.61344 17.6551 8.84678 17.4968 8.99678C16.9711 9.51881 16.4811 10.0756 16.0301 10.6634C15.6635 11.1134 15.5135 11.3218 15.1968 11.7801C14.8801 12.2384 15.0968 12.9801 15.4301 12.7801C15.8218 12.3218 15.9384 12.1968 16.4051 11.6801C16.9825 11.0309 17.5945 10.4134 18.2385 9.83011C18.642 9.49613 18.9956 9.10606 19.2885 8.67178C19.4625 8.38465 19.5276 8.04454 19.4718 7.71344Z" fill="white"/>
<path fill-rule="evenodd" clip-rule="evenodd" d="M6.70511 8.07178C6.70511 7.76344 6.70511 7.45511 6.63845 7.14678C6.34678 4.89678 6.24678 5.38011 6.63845 5.23011C6.92579 5.13872 7.2218 5.07728 7.52178 5.04678C7.96344 4.99678 8.40511 4.98011 8.83845 4.93844C8.83845 5.88011 8.88011 6.83011 8.83845 7.78844C8.83845 8.44678 8.83845 8.67178 8.73011 9.32178C8.73011 9.83844 9.23011 9.66344 9.34678 9.32178C9.45511 8.71344 9.48845 8.48844 9.55511 7.83011C9.66345 6.63844 9.73011 5.44678 9.78011 4.28011V3.12178C10.3778 3.04709 10.9824 3.04709 11.5801 3.12178C12.6218 3.23844 13.6884 3.48844 14.6718 3.66344C14.6674 3.79803 14.6507 3.93193 14.6218 4.06344C14.6218 4.32178 14.5218 4.58011 14.4551 4.83844C14.2134 5.83844 13.9801 6.83844 13.7551 7.84678C13.6218 8.49678 13.6134 8.43011 13.4968 9.08844C13.4301 9.33844 13.8551 10.0884 14.0801 9.39678C14.0801 9.39678 14.3134 8.68011 14.4884 8.03011C14.7551 7.03844 15.0468 6.06344 15.3218 5.08011C15.4051 4.80511 15.4968 4.53011 15.5551 4.24678C15.6134 3.96344 15.6218 3.84678 15.6468 3.63844V3.22178C15.6392 3.10429 15.5924 2.99277 15.5138 2.90511C15.4352 2.81745 15.3294 2.75875 15.2134 2.73844C14.1884 2.57178 12.9551 2.21344 11.7468 2.07178C10.8919 1.94788 10.0215 1.98462 9.18011 2.18011C9.05636 2.24319 8.95306 2.34012 8.88225 2.45961C8.81143 2.57911 8.77601 2.71627 8.78011 2.85511C8.78011 3.23844 8.83845 4.16344 8.84678 4.26344C8.33011 4.26344 7.78011 4.19678 7.23844 4.20511C6.9585 4.21096 6.67963 4.24163 6.40511 4.29678C6.14443 4.35616 5.89239 4.44857 5.65511 4.57178C5.55346 4.63144 5.46919 4.71668 5.41071 4.81902C5.35223 4.92137 5.32157 5.03724 5.32178 5.15511C5.33584 5.57649 5.3748 5.99666 5.43844 6.41344C5.53844 7.01344 5.69678 7.59678 5.79678 8.18844L6.03011 9.38844C6.15511 9.77178 6.67178 9.78844 6.69678 9.43844L6.70511 8.07178Z" fill="white"/>
</svg>
